HIERARCHY
ROOT Hips
{
    OFFSET 0.000000 0.000000 0.000000
    CHANNELS 6 Xposition Yposition Zposition Zrotation Xrotation Yrotation
    JOINT Spine
    {
        OFFSET -0.000000 7.236184 0.000000
        CHANNELS 3 Zrotation Xrotation Yrotation
        JOINT Spine1
        {
            OFFSET -0.000000 20.420147 0.000000
            CHANNELS 3 Zrotation Xrotation Yrotation
            JOINT Neck
            {
                OFFSET -0.000000 20.336288 1.848754
                CHANNELS 3 Zrotation Xrotation Yrotation
                JOINT Head
                {
                    OFFSET -0.000000 12.354461 -1.764923
                    CHANNELS 3 Zrotation Xrotation Yrotation
                    End Site
                    {
                        OFFSET -0.000000 22.061537 0.000000
                    }
                }
            }
            JOINT LeftShoulder
            {
                OFFSET 3.573296 18.396038 -0.314103
                CHANNELS 3 Zrotation Xrotation Yrotation
                JOINT LeftArm
                {
                    OFFSET 10.880760 0.000000 0.000000
                    CHANNELS 3 Zrotation Xrotation Yrotation
                    JOINT LeftForeArm
                    {
                        OFFSET 27.185530 0.000000 0.000000
                        CHANNELS 3 Zrotation Xrotation Yrotation
                        JOINT LeftHand
                        {
                            OFFSET 27.825975 0.000000 0.000000
                            CHANNELS 3 Zrotation Xrotation Yrotation
                            End Site
                            {
                                OFFSET 13.236923 0.000000 0.000000
                            }
                        }
                    }
                }
            }
            JOINT RightShoulder
            {
                OFFSET -3.474926 18.396038 -0.314103
                CHANNELS 3 Zrotation Xrotation Yrotation
                JOINT RightArm
                {
                    OFFSET -10.880760 0.000000 0.000000
                    CHANNELS 3 Zrotation Xrotation Yrotation
                    JOINT RightForeArm
                    {
                        OFFSET -27.185530 0.000000 0.000000
                        CHANNELS 3 Zrotation Xrotation Yrotation
                        JOINT RightHand
                        {
                            OFFSET -27.825975 0.000000 0.000000
                            CHANNELS 3 Zrotation Xrotation Yrotation
                            End Site
                            {
                                OFFSET -13.236923 0.000000 0.000000
                            }
                        }
                    }
                }
            }
        }
    }
    JOINT LeftUpLeg
    {
        OFFSET 8.824615 0.000000 0.000000
        CHANNELS 3 Zrotation Xrotation Yrotation
        JOINT LeftLeg
        {
            OFFSET -0.000000 -35.111282 0.000000
            CHANNELS 3 Zrotation Xrotation Yrotation
            JOINT LeftFoot
            {
                OFFSET -0.000000 -42.324711 0.000000
                CHANNELS 3 Zrotation Xrotation Yrotation
                JOINT LeftToeBase
                {
                    OFFSET -0.000000 -5.735999 13.236923
                    CHANNELS 3 Zrotation Xrotation Yrotation
                    End Site
                    {
                        OFFSET -0.000000 0.000000 3.529846
                    }
                }
            }
        }
    }
    JOINT RightUpLeg
    {
        OFFSET -8.824615 0.000000 0.000000
        CHANNELS 3 Zrotation Xrotation Yrotation
        JOINT RightLeg
        {
            OFFSET -0.000000 -35.111282 0.000000
            CHANNELS 3 Zrotation Xrotation Yrotation
            JOINT RightFoot
            {
                OFFSET -0.000000 -42.324711 0.000000
                CHANNELS 3 Zrotation Xrotation Yrotation
                JOINT RightToeBase
                {
                    OFFSET -0.000000 -5.735999 13.236923
                    CHANNELS 3 Zrotation Xrotation Yrotation
                    End Site
                    {
                        OFFSET -0.000000 0.000000 3.529846
                    }
                }
            }
        }
    }
}
MOTION
Frames:    4
Frame Time:    0.008333
-1.714504    82.294777    95.363007    2.369625    -3.802027    -171.316956    2.571451    -13.760651    4.613810    -14.599018    4.910982    4.932895    10.711554    6.852856    -15.182241    20.216372    10.606862    -15.822606    4.078333    18.049309    -4.526954    -47.421349    39.782375    -31.602749    -4.695680    -5.142903    -14.634524    17.897743    -4.976665    4.888196    -18.910524    -3.603786    3.829371    3.248889    -7.608694    38.517971    -55.852314    -21.063856    54.826984    -55.440529    8.312581    4.635496    6.691153    -2.316422    -2.758241    -3.336672    5.555415    -2.160009    -0.234566    -9.056223    -9.831787    -0.580349    2.308321    0.640682    -0.252969    0.964104    -3.193935    12.130871    9.851694    -13.658007    0.000000    0.000000    0.000000    0.000000    0.000000    0.000000    
-1.715442    82.292534    95.338806    2.375420    -3.812121    -171.368301    2.572392    -13.782646    4.605271    -14.584070    4.906750    4.922562    10.720812    6.821642    -15.144515    20.133772    10.556076    -15.781359    4.098768    18.017817    -4.550029    -47.480984    39.789585    -31.547808    -4.718846    -5.101052    -14.614853    17.864788    -4.941800    4.866481    -18.903788    -3.583519    3.779708    3.111501    -7.403661    38.348667    -56.026577    -20.926033    54.880951    -55.656780    8.448550    4.945116    6.702971    -2.294630    -2.763018    -3.347278    5.548736    -2.130951    -0.228878    -9.077945    -9.807343    -0.574465    2.306653    0.634188    -0.248615    0.963467    -3.186897    12.125058    9.862008    -13.623731    0.000000    0.000000    0.000000    0.000000    0.000000    0.000000    
-1.715196    82.290230    95.313843    2.379797    -3.822460    -171.420990    2.573788    -13.804071    4.594659    -14.568078    4.901071    4.909880    10.728668    6.790584    -15.105692    20.052284    10.510503    -15.739774    4.118341    17.980192    -4.574212    -47.549229    39.796444    -31.483210    -4.739132    -5.050535    -14.595306    17.848763    -4.897429    4.842813    -18.899054    -3.564919    3.729243    2.993414    -7.212553    38.163795    -56.148720    -20.732988    54.865791    -55.875385    8.566810    5.230695    6.713441    -2.276277    -2.768996    -3.357049    5.550189    -2.104128    -0.222677    -9.103448    -9.777569    -0.568691    2.304170    0.627816    -0.244837    0.964080    -3.177135    12.119686    9.870433    -13.589836    0.000000    0.000000    0.000000    0.000000    0.000000    0.000000    
-1.713802    82.287903    95.288307    2.382706    -3.832953    -171.474411    2.575695    -13.824642    4.581951    -14.551243    4.893857    4.894795    10.734928    6.759947    -15.065989    19.972458    10.470401    -15.698093    4.136348    17.936945    -4.599557    -47.624897    39.803436    -31.409111    -4.756301    -4.992103    -14.576519    17.846937    -4.844482    4.817238    -18.896145    -3.547959    3.678650    2.895534    -7.036651    37.964798    -56.218674    -20.485907    54.780949    -56.096535    8.665530    5.491767    6.722663    -2.261151    -2.776401    -3.366357    5.558904    -2.079442    -0.215914    -9.132086    -9.742934    -0.563614    2.301263    0.622214    -0.241634    0.965848    -3.164886    12.114635    9.876996    -13.556978    0.000000    0.000000    0.000000    0.000000    0.000000    0.000000    
